<svg xmlns="http://www.w3.org/2000/svg" version="1.1" xmlns:xlink="http://www.w3.org/1999/xlink" xmlns:svgjs="http://svgjs.com/svgjs" width="200.000000pt" height="200.000000pt"><svg version="1.0" xmlns="http://www.w3.org/2000/svg" width="200.000000pt" height="200.000000pt" viewBox="0 0 200.000000 200.000000" preserveAspectRatio="xMidYMid meet">

<g transform="translate(0.000000,200.000000) scale(0.100000,-0.100000)" fill="#000000" stroke="none">
<path d="M887 1751 c-9 -16 -17 -43 -17 -60 0 -26 7 -36 35 -52 19 -12 35 -27
35 -35 0 -8 5 -14 11 -14 15 0 2 72 -25 137 l-22 53 -17 -29z m33 -31 c7 -17
10 -34 6 -37 -4 -4 -9 3 -13 15 -8 34 -24 26 -18 -9 4 -19 2 -28 -5 -24 -18
11 -9 85 10 85 4 0 13 -14 20 -30z"></path>
<path d="M1040 1731 c67 -7 90 -15 90 -31 0 -5 -17 -2 -37 7 -25 10 -53 13
-86 10 -29 -4 -45 -2 -42 3 4 6 1 10 -6 10 -8 0 -9 -10 -5 -32 4 -18 10 -48
13 -65 5 -29 9 -33 37 -33 21 0 44 10 66 30 42 35 63 40 32 7 -12 -13 -22 -27
-22 -33 0 -5 5 -1 11 9 6 9 15 14 21 11 7 -4 8 -2 4 4 -4 7 6 20 26 32 35 21
31 28 -5 9 -21 -12 -21 -11 -4 8 16 19 16 21 -3 38 -16 14 -39 20 -88 21 l-67
2 65 -7z m34 -31 c18 -6 24 -14 20 -25 -6 -14 -8 -14 -23 -1 -23 21 -43 5 -39
-30 3 -25 0 -29 -24 -29 -21 -1 -28 4 -28 17 0 10 7 18 16 18 9 0 14 7 12 18
-2 9 -11 16 -21 16 -9 -1 -17 3 -17 8 0 6 11 7 25 4 14 -4 25 -2 25 4 0 13 21
13 54 0z"></path>
<path d="M603 1687 c-17 -18 -19 -27 -10 -42 10 -19 10 -19 -13 0 l-23 20 11
-20 c28 -51 103 -134 124 -137 34 -5 26 -22 -13 -29 -51 -8 -79 -27 -94 -62
-8 -18 -14 -24 -15 -15 0 30 49 76 93 87 l42 11 -40 -5 c-53 -6 -105 -59 -105
-109 0 -40 9 -68 20 -61 4 3 14 -3 21 -12 10 -12 10 -14 2 -9 -8 4 -13 2 -13
-5 0 -8 -4 -8 -15 1 -8 7 -15 8 -15 3 0 -5 14 -17 30 -26 25 -15 28 -21 20
-38 -13 -23 -19 -24 -47 -4 -19 14 -21 13 -16 -4 10 -38 83 -86 83 -55 0 8 5
12 10 9 12 -7 14 -36 3 -34 -38 6 -83 -29 -83 -63 0 -31 38 -61 68 -54 15 3
43 9 61 11 l35 6 -35 -24 c-38 -27 -49 -26 -28 0 12 16 11 17 -3 3 -17 -16
-21 -30 -19 -67 1 -32 72 -99 112 -108 19 -4 40 -12 46 -17 7 -6 19 -8 27 -5
10 4 13 -3 12 -26 -1 -29 1 -32 28 -30 16 1 39 11 51 23 l21 20 24 -25 c33
-35 91 -35 126 0 23 23 27 24 47 10 12 -8 31 -15 44 -15 12 0 26 -8 32 -17 9
-17 11 -17 25 2 8 11 16 32 16 46 0 23 3 25 30 21 35 -5 70 20 70 50 0 13 7
18 25 18 42 0 102 29 114 56 16 35 14 76 -5 102 -15 22 -14 24 10 43 28 22 34
57 15 87 -9 14 -8 25 5 50 9 17 16 43 16 57 0 30 -40 75 -67 75 -13 0 -9 -6
13 -19 41 -25 47 -35 39 -70 -6 -28 -52 -60 -64 -44 -13 17 -51 33 -51 22 0
-8 -4 -8 -14 0 -12 10 -16 3 -25 -39 -14 -66 -34 -102 -84 -157 -40 -43 -94
-79 -104 -69 -3 2 8 11 25 20 16 8 50 38 76 67 130 145 85 364 -94 460 -78 41
-210 39 -285 -6 -118 -69 -179 -216 -142 -337 17 -55 5 -66 -13 -13 -27 82 -7
203 46 272 l25 33 -25 31 c-24 28 -26 29 -26 9 0 -12 5 -31 12 -43 10 -20 10
-21 -5 -8 -10 7 -17 10 -17 6 0 -5 -8 -1 -17 7 -10 9 -28 19 -40 22 -12 4 -37
26 -57 51 -37 45 -47 67 -21 45 8 -7 15 -9 15 -5 0 5 9 0 20 -10 12 -11 20
-13 20 -6 0 7 5 9 10 6 6 -3 10 -11 10 -16 0 -6 -4 -7 -10 -4 -5 3 -10 1 -10
-6 0 -6 -9 -1 -20 12 -10 13 -19 19 -20 13 0 -6 11 -21 25 -34 21 -20 25 -21
31 -7 3 9 11 14 17 10 7 -4 8 0 3 12 -5 15 -4 16 9 5 8 -7 15 -27 15 -46 0
-18 4 -35 9 -38 5 -3 8 12 7 33 -2 32 -13 51 -60 105 -32 36 -58 66 -59 66 -1
0 -12 -11 -24 -23z m97 -81 c0 -5 -7 -3 -15 4 -8 7 -15 9 -15 5 0 -5 -9 0 -19
9 -13 12 -20 14 -23 5 -2 -6 -12 1 -23 17 -17 26 -17 27 -1 15 16 -13 18 -13
16 0 -6 38 3 38 40 -2 21 -24 39 -48 40 -53z m423 -50 c85 -26 156 -90 187
-170 9 -24 8 -27 -4 -23 -22 9 -29 -10 -9 -22 15 -8 16 -12 5 -22 -10 -11 -16
-8 -30 11 -33 47 -41 69 -29 73 7 3 4 8 -7 12 -10 5 -21 3 -25 -3 -4 -7 -12
-8 -20 -2 -17 10 -42 3 -58 -17 -23 -29 -34 -3 -12 28 12 17 24 28 26 25 8 -8
43 13 43 25 0 6 -4 7 -10 4 -5 -3 -10 -1 -10 5 0 6 -5 8 -10 5 -6 -4 -7 -11
-4 -17 4 -6 1 -9 -5 -7 -7 3 -12 8 -12 12 1 4 1 14 1 23 0 16 7 16 55 -1 20
-7 20 -6 1 9 -25 20 -66 21 -66 1 0 -8 -12 -26 -27 -39 -27 -25 -27 -26 -8
-40 13 -10 15 -15 6 -16 -9 0 -11 -8 -7 -24 4 -15 0 -28 -9 -36 -24 -20 -19
-77 11 -107 22 -22 25 -31 18 -62 -6 -27 -9 -31 -11 -15 -3 16 -9 20 -23 17
-19 -5 -39 7 -116 72 -24 19 -47 29 -70 29 -18 0 -35 5 -37 11 -3 6 11 9 37 7
l41 -3 -27 16 c-16 9 -28 20 -28 26 0 22 41 67 65 73 24 6 26 10 22 49 -2 23
-2 34 0 25 5 -22 13 -22 49 -3 25 13 29 13 37 0 10 -19 27 -19 27 0 0 8 -4 15
-9 15 -5 0 -8 8 -7 18 1 14 -9 18 -48 20 -27 2 -54 -2 -59 -7 -6 -6 -20 -11
-31 -11 -12 0 -28 -5 -36 -10 -11 -8 -6 -9 19 -8 23 2 35 -2 38 -12 3 -11 2
-12 -5 -2 -6 10 -15 10 -36 2 -28 -10 -31 -30 -6 -38 9 -3 11 1 7 11 -4 11 -1
15 14 12 38 -7 56 -35 23 -35 -8 0 -13 -3 -10 -8 2 -4 -7 -12 -20 -19 -19 -9
-24 -8 -24 2 0 12 -29 29 -37 22 -7 -7 9 -37 17 -32 15 9 19 -10 7 -30 -7 -12
-23 -20 -37 -20 -20 0 -25 -5 -25 -25 0 -15 5 -24 13 -23 6 2 12 -2 12 -7 0
-12 -10 -13 -29 -1 -14 9 -12 70 4 116 4 13 1 12 -9 -5 -19 -31 -21 -8 -2 28
53 101 198 155 319 118z m-73 -33 c-1 -5 -16 -15 -34 -24 -34 -15 -34 -15 -39
8 -4 21 -1 23 34 23 22 0 39 -3 39 -7z m-327 -83 c3 -10 -2 -25 -9 -31 -8 -7
-12 -19 -9 -27 3 -8 3 -22 0 -32 -7 -23 -67 -20 -94 4 -21 19 -16 38 21 77 30
32 84 37 91 9z m391 12 c3 -5 -1 -9 -9 -9 -8 0 -12 4 -9 9 3 4 7 8 9 8 2 0 6
-4 9 -8z m69 -86 c10 -8 26 -12 37 -9 12 3 20 -2 24 -15 4 -11 18 -31 32 -45
l25 -26 -20 -20 c-12 -12 -21 -25 -21 -31 0 -5 -4 -10 -9 -10 -5 0 -18 -15
-30 -32 l-21 -33 0 35 c0 20 -7 46 -16 58 -13 19 -22 21 -49 16 -27 -5 -35 -2
-44 14 -16 30 -14 56 7 79 29 34 57 40 85 19z m-563 -86 c8 -5 11 -10 5 -10
-5 0 -17 5 -25 10 -8 5 -10 10 -5 10 6 0 17 -5 25 -10z m55 -9 c-9 -8 -36 -10
-30 -2 2 4 11 8 20 8 8 0 13 -3 10 -6z m287 -31 c17 -16 34 -30 37 -30 3 0 12
-4 20 -9 11 -7 10 -16 -5 -50 -10 -22 -20 -41 -23 -41 -3 0 -19 11 -35 25 -16
14 -34 25 -40 25 -25 0 -49 70 -37 108 1 1 12 2 26 2 14 0 39 -13 57 -30z
m-325 -12 c-3 -8 -6 -5 -6 6 -1 11 2 17 5 13 3 -3 4 -12 1 -19z m786 15 c-7
-2 -19 -2 -25 0 -7 3 -2 5 12 5 14 0 19 -2 13 -5z m-722 -34 l24 -20 -30 17
c-39 24 -40 24 -28 24 6 0 21 -9 34 -21z m-17 -39 c10 -13 9 -13 -6 -1 -10 7
-18 21 -17 30 0 13 1 14 6 1 3 -8 11 -22 17 -30z m780 25 c-4 -8 -2 -15 4 -15
6 0 12 6 15 13 3 8 7 6 12 -6 14 -35 -32 -59 -79 -41 -19 7 -21 35 -4 52 18
18 59 16 52 -3z m-644 -5 c0 -5 -5 -10 -11 -10 -5 0 -7 5 -4 10 3 6 8 10 11
10 2 0 4 -4 4 -10z m-180 -66 c0 -8 -4 -12 -10 -9 -5 3 -10 10 -10 16 0 5 5 9
10 9 6 0 10 -7 10 -16z m70 12 c0 -11 -19 -15 -25 -6 -3 5 1 10 9 10 9 0 16
-2 16 -4z m22 -8 c-19 -19 -14 -28 21 -43 32 -14 32 -14 5 -15 -34 0 -56 33
-37 56 6 8 14 14 17 14 3 0 1 -5 -6 -12z m-126 -26 c-22 -5 -30 3 -21 18 5 8
11 7 22 -2 15 -12 14 -13 -1 -16z m184 18 c0 -5 -4 -11 -9 -14 -12 -7 -42 4
-37 13 7 10 46 11 46 1z m648 -20 c60 -37 66 -90 17 -142 -24 -26 -64 -40 -50
-19 3 5 -3 12 -12 14 -12 3 -10 5 7 6 42 2 70 28 70 65 0 38 -22 62 -77 82
-31 11 -34 13 -13 14 14 0 40 -9 58 -20z m-527 -30 c26 -15 24 -35 -8 -60 -32
-25 -81 -24 -97 3 -9 15 -6 23 17 43 30 26 57 30 88 14z m39 -47 c0 -19 -3
-24 -10 -17 -6 6 -8 18 -4 27 9 24 14 21 14 -10z m182 -3 c-3 -26 -28 -49 -54
-50 -22 0 -24 -18 -3 -26 17 -7 18 -13 6 -32 -7 -11 -19 -8 -61 13 -39 20 -64
26 -96 23 -24 -2 -44 -2 -44 -1 0 7 83 43 145 63 39 12 74 26 80 31 15 15 30
3 27 -21z m51 -68 c-4 -17 -8 -19 -23 -9 -10 6 -16 15 -13 21 4 6 -1 7 -13 2
-15 -6 -17 -5 -6 6 10 10 17 10 35 -1 21 -13 22 -13 5 6 -10 11 -18 25 -18 33
0 7 9 2 19 -12 12 -15 18 -33 14 -46z m130 17 c16 -18 27 -40 27 -57 l-1 -27
-13 31 c-8 17 -31 45 -52 63 -34 28 -35 32 -14 26 14 -4 37 -20 53 -36z m-623
17 c0 -3 -4 -8 -10 -11 -5 -3 -10 -1 -10 4 0 6 5 11 10 11 6 0 10 -2 10 -4z
m46 -52 c24 -3 61 -4 81 0 31 4 33 4 15 -4 -13 -5 -30 -17 -38 -25 -24 -24
-93 -13 -121 19 -31 36 -32 65 -2 37 12 -11 41 -23 65 -27z m-10 31 c-10 -8
-23 -12 -28 -9 -14 9 2 24 25 24 21 -1 21 -1 3 -15z m77 0 c0 -6 -7 -11 -16
-13 -12 -3 -15 1 -11 13 7 17 25 17 27 0z m444 -27 c19 -21 48 -88 38 -88 -3
0 -12 15 -21 33 -9 17 -26 42 -37 55 -11 12 -16 22 -10 22 5 0 19 -10 30 -22z
m-42 -8 c3 -5 1 -10 -4 -10 -6 0 -11 5 -11 10 0 6 2 10 4 10 3 0 8 -4 11 -10z
m-235 -9 c0 -5 -7 -22 -16 -37 -15 -27 -15 -27 -9 -4 3 14 7 31 7 38 1 14 18
17 18 3z m-71 -22 c-19 -12 -29 -11 -29 2 0 5 5 7 10 4 6 -3 10 -1 10 5 0 6 5
8 11 4 8 -4 7 -9 -2 -15z m279 -3 c4 -20 -14 -44 -25 -32 -4 4 -2 11 5 15 8 5
-1 8 -23 9 -21 1 -33 -3 -30 -8 3 -6 1 -10 -5 -10 -7 0 -9 7 -6 16 3 9 6 19 6
23 0 4 17 7 37 6 28 0 39 -6 41 -19z m-152 -30 c1 -26 1 -26 -3 -1 -2 14 -8
25 -13 25 -4 0 -6 -9 -3 -20 3 -11 1 -20 -4 -20 -5 0 -10 6 -10 13 0 6 -4 20
-8 30 -6 15 -4 16 16 9 17 -6 24 -18 25 -36z m188 15 c3 -5 -1 -11 -9 -14 -9
-4 -12 -1 -8 9 6 16 10 17 17 5z m-117 -38 c-8 -7 -37 9 -31 19 3 5 12 4 20
-3 8 -6 13 -14 11 -16z m-216 -1 c-15 -3 -20 -7 -12 -11 8 -5 6 -13 -9 -26
-15 -14 -20 -15 -20 -4 0 27 29 59 48 51 14 -6 13 -7 -7 -10z m349 8 c0 -5 -4
-10 -10 -10 -5 0 -10 5 -10 10 0 6 5 10 10 10 6 0 10 -4 10 -10z m-16 -23 c14
-13 23 -27 19 -31 -4 -3 -17 4 -30 16 -20 19 -25 20 -33 8 -8 -13 -10 -13 -10
1 0 35 20 37 54 6z m-200 -34 c9 4 18 2 21 -3 8 -13 -31 -13 -54 0 -10 5 -22
17 -25 27 -5 13 -1 12 18 -6 14 -13 32 -21 40 -18z"></path>
<path d="M640 1652 c12 -18 25 -31 28 -27 3 3 -7 18 -23 33 l-28 27 23 -33z"></path>
<path d="M1260 1422 c0 -12 19 -26 26 -19 2 2 -2 10 -11 17 -9 8 -15 8 -15 2z"></path>
<path d="M672 1430 l-23 -19 28 3 c15 2 29 8 31 14 6 19 -13 20 -36 2z"></path>
<path d="M615 1389 c-4 -5 1 -19 11 -30 16 -18 19 -18 27 -4 17 31 -20 65 -38
34z"></path>
<path d="M676 1373 c-11 -11 -6 -23 9 -23 8 0 15 4 15 9 0 13 -16 22 -24 14z"></path>
<path d="M1110 1019 c0 -5 5 -7 10 -4 6 3 10 8 10 11 0 2 -4 4 -10 4 -5 0 -10
-5 -10 -11z"></path>
<path d="M1015 971 c-3 -5 -1 -12 5 -16 12 -7 30 2 30 16 0 12 -27 12 -35 0z"></path>
<path d="M680 926 c0 -2 7 -9 15 -16 13 -11 14 -10 9 4 -5 14 -24 23 -24 12z"></path>
<path d="M759 1694 c-10 -13 -10 -20 4 -44 9 -15 17 -40 17 -55 0 -14 7 -39
15 -56 16 -31 23 -30 68 4 22 18 22 30 -3 52 -11 10 -17 22 -13 28 3 5 1 7 -4
4 -11 -7 -50 30 -41 39 9 8 102 -60 97 -71 -2 -6 -8 -9 -14 -7 -6 2 -5 -1 1
-8 6 -6 18 -8 27 -4 25 9 4 40 -44 64 -22 12 -45 32 -51 45 -13 28 -39 32 -59
9z m25 -8 c-21 -15 -30 -14 -19 3 3 6 14 11 23 11 13 0 13 -2 -4 -14z"></path>
<path d="M1286 1661 c-20 -27 -36 -52 -36 -57 0 -4 18 17 40 46 22 29 40 49
40 42 0 -6 -22 -41 -50 -77 -27 -36 -50 -70 -50 -76 0 -11 20 -13 20 -1 0 4
13 22 29 41 l28 34 31 -23 30 -22 -31 -34 c-37 -41 -48 -38 -16 5 33 45 18 48
-18 3 -30 -37 -30 -38 -12 -61 11 -13 23 -19 30 -15 9 5 10 2 5 -12 -3 -10 5
-4 20 14 25 31 81 68 90 59 3 -2 -18 -25 -47 -51 l-51 -46 12 -50 c11 -48 13
-49 28 -30 10 10 24 20 32 22 18 4 54 48 81 100 31 60 22 57 -41 -12 -33 -36
-59 -60 -60 -55 0 6 24 37 54 70 30 33 51 64 46 69 -16 16 -77 -4 -118 -40
-51 -43 -56 -31 -7 16 18 18 33 36 32 40 -1 4 9 17 23 29 23 19 23 22 8 31 -9
6 -23 17 -31 24 -11 11 -17 10 -36 -5 -38 -31 -56 -24 -31 11 21 29 21 60 1
60 -5 0 -25 -22 -45 -49z m94 -41 c-24 -15 -36 -11 -14 4 10 8 21 12 24 10 2
-3 -2 -9 -10 -14z m40 -9 c0 -5 -7 -12 -16 -15 -14 -5 -15 -4 -4 9 14 17 20
19 20 6z m14 -132 c-32 -33 -63 -59 -68 -59 -6 0 14 24 43 54 35 36 48 55 40
58 -8 3 -1 5 14 5 28 0 28 -1 -29 -58z"></path>
<path d="M1205 1667 l27 -22 -19 -33 c-21 -38 -32 -41 -26 -8 3 13 -1 27 -8
31 -7 5 -10 4 -6 -3 10 -16 -3 -42 -22 -43 -9 0 2 -9 24 -19 51 -22 70 -9 67
47 -2 36 -30 73 -54 73 -5 0 3 -10 17 -23z m25 -88 c-7 -11 -14 -18 -17 -15
-3 3 0 12 7 21 18 21 23 19 10 -6z"></path>
<path d="M860 1615 c0 -2 10 -10 23 -16 20 -11 21 -11 8 4 -13 16 -31 23 -31
12z"></path>
<path d="M1125 1611 c-3 -6 -11 -9 -16 -6 -5 4 -9 1 -9 -4 0 -6 6 -11 14 -11
16 0 31 18 23 26 -3 3 -8 0 -12 -5z"></path>
<path d="M1465 1330 c-4 -7 -18 -9 -31 -6 -30 8 -32 -10 -3 -19 21 -7 59 18
47 30 -3 4 -9 1 -13 -5z"></path>
<path d="M1455 1290 c-19 -8 -19 -9 3 -9 12 -1 22 4 22 9 0 6 -1 10 -2 9 -2 0
-12 -4 -23 -9z"></path>
<path d="M1020 606 c0 -19 -4 -23 -20 -19 -27 7 -50 -14 -50 -46 0 -44 14 -55
68 -52 21 1 22 5 22 71 0 40 -4 70 -10 70 -5 0 -10 -11 -10 -24z m-5 -66 c0
-28 -4 -35 -20 -35 -13 0 -21 8 -23 23 -5 34 5 54 25 50 13 -2 18 -13 18 -38z"></path>
<path d="M632 553 c0 -38 3 -53 5 -35 4 28 8 32 34 32 16 0 29 5 29 10 0 6
-14 10 -31 10 -41 0 -36 32 6 41 29 6 29 7 -7 8 l-38 1 2 -67z"></path>
<path d="M1142 553 c0 -38 3 -53 5 -35 4 28 8 32 34 32 16 0 29 5 29 10 0 6
-13 10 -30 10 -23 0 -30 5 -30 19 0 15 8 21 33 24 31 4 31 4 -5 5 l-38 2 2
-67z"></path>
<path d="M732 578 c-15 -15 -15 -61 0 -76 17 -17 65 -15 72 4 17 45 -1 84 -39
84 -12 0 -26 -5 -33 -12z m58 -18 c14 -26 -4 -63 -28 -58 -18 3 -28 39 -18 64
8 20 34 17 46 -6z"></path>
<path d="M840 565 c-15 -40 3 -75 40 -75 39 0 59 36 42 75 -9 19 -19 25 -42
25 -23 0 -33 -6 -40 -25z m60 1 c18 -23 8 -61 -17 -64 -17 -3 -24 3 -29 22 -4
16 -1 32 6 41 16 19 24 19 40 1z"></path>
<path d="M1242 578 c-20 -20 -14 -65 10 -82 19 -13 25 -14 43 -2 23 16 32 61
14 82 -14 17 -51 18 -67 2z m59 -25 c10 -27 -12 -59 -35 -50 -16 6 -23 57 -9
71 13 12 36 2 44 -21z"></path>
<path d="M1350 538 c0 -26 5 -48 10 -48 6 0 10 17 10 38 0 31 5 41 23 49 20
10 20 11 -10 10 -33 0 -33 -1 -33 -49z"></path>
<path d="M630 330 l0 -70 40 0 c22 0 40 5 40 10 0 6 -16 10 -36 10 -31 0 -35
3 -32 23 2 17 11 23 38 26 l35 4 -35 6 c-50 9 -55 41 -6 41 20 0 36 5 36 10 0
6 -18 10 -40 10 l-40 0 0 -70z"></path>
<path d="M738 365 c-10 -10 33 -106 46 -102 14 5 49 97 37 97 -4 0 -15 -17
-23 -37 l-15 -38 -19 43 c-11 24 -22 40 -26 37z"></path>
<path d="M866 354 c-23 -22 -20 -71 3 -84 26 -13 58 -13 67 2 5 8 0 9 -15 5
-29 -7 -51 1 -51 19 0 9 12 14 35 14 28 0 35 4 35 20 0 18 -26 40 -49 40 -5 0
-17 -7 -25 -16z m54 -19 c0 -9 -9 -15 -25 -15 -24 0 -32 10 -18 23 12 13 43 7
43 -8z"></path>
<path d="M993 363 c-20 -4 -23 -10 -23 -54 0 -31 4 -48 10 -44 6 3 10 22 10
42 0 26 5 36 20 40 18 5 30 25 13 22 -5 -1 -18 -4 -30 -6z"></path>
<path d="M1040 362 c0 -5 9 -31 20 -56 17 -41 18 -47 3 -61 -8 -9 -12 -19 -9
-22 4 -4 12 0 20 8 18 19 60 128 53 136 -4 3 -14 -14 -24 -38 l-17 -43 -16 37
c-18 41 -30 56 -30 39z"></path>
<path d="M1167 352 c-43 -47 17 -124 61 -80 20 20 15 76 -7 88 -27 14 -35 13
-54 -8z m57 -18 c9 -24 8 -31 -10 -49 -12 -12 -19 -13 -30 -4 -15 12 -19 51
-7 62 12 13 41 7 47 -9z"></path>
<path d="M1293 363 c-20 -4 -23 -11 -23 -54 0 -60 18 -65 22 -6 2 35 7 43 26
45 20 3 22 -1 22 -42 0 -25 5 -46 10 -46 14 0 12 84 -2 98 -12 12 -16 13 -55
5z"></path>
<path d="M1412 363 c-25 -10 -34 -53 -17 -79 17 -26 68 -34 81 -13 5 8 -1 10
-20 7 -17 -4 -33 0 -43 11 -16 15 -14 16 25 19 45 3 54 19 26 46 -16 16 -29
19 -52 9z m46 -30 c2 -8 -6 -13 -22 -13 -26 0 -40 12 -29 24 11 11 46 2 51
-11z"></path>
</g>
</svg><style>@media (prefers-color-scheme: light) { :root { filter: none; } }
</style></svg>